HIERARCHY
ROOT Hips
{
	OFFSET 0.000000 0.000000 0.000000
	CHANNELS 6 Xposition Yposition Zposition Zrotation Yrotation Xrotation 
	JOINT LHipJoint
	{
		OFFSET 0.000000 0.000000 0.000000
		CHANNELS 3 Zrotation Yrotation Xrotation
		JOINT LeftUpLeg
		{
			OFFSET 1.363060 -1.794630 0.839290
			CHANNELS 3 Zrotation Yrotation Xrotation
			JOINT LeftLeg
			{
				OFFSET 2.448110 -6.726130 0.000000
				CHANNELS 3 Zrotation Yrotation Xrotation
				JOINT LeftFoot
				{
					OFFSET 2.562200 -7.039590 0.000000
					CHANNELS 3 Zrotation Yrotation Xrotation
					JOINT LeftToeBase
					{
						OFFSET 0.157640 -0.433110 2.322550
						CHANNELS 3 Zrotation Yrotation Xrotation
						End Site
						{
							OFFSET 0.000000 0.000000 0.000000
						}
					}
				}
			}
		}
	}
	JOINT RHipJoint
	{
		OFFSET 0.000000 0.000000 0.000000
		CHANNELS 3 Zrotation Yrotation Xrotation
		JOINT RightUpLeg
		{
			OFFSET -1.305520 -1.794630 0.839290
			CHANNELS 3 Zrotation Yrotation Xrotation
			JOINT RightLeg
			{
				OFFSET -2.542530 -6.985550 0.000000
				CHANNELS 3 Zrotation Yrotation Xrotation
				JOINT RightFoot
				{
					OFFSET -2.568260 -7.056230 0.000000
					CHANNELS 3 Zrotation Yrotation Xrotation
					JOINT RightToeBase
					{
						OFFSET -0.164730 -0.452590 2.363150
						CHANNELS 3 Zrotation Yrotation Xrotation
						End Site
						{
							OFFSET 0.000000 0.000000 0.000000
						}
					}
				}
			}
		}
	}
	JOINT LowerBack
	{
		OFFSET 0.000000 0.000000 0.000000
		CHANNELS 3 Zrotation Yrotation Xrotation
		JOINT Spine
		{
			OFFSET 0.028270 2.035590 -0.193380
			CHANNELS 3 Zrotation Yrotation Xrotation
			JOINT Spine1
			{
				OFFSET 0.056720 2.048850 -0.042750
				CHANNELS 3 Zrotation Yrotation Xrotation
				JOINT Neck
				{
					OFFSET 0.000000 0.000000 0.000000
					CHANNELS 3 Zrotation Yrotation Xrotation
					JOINT Neck1
					{
						OFFSET -0.054170 1.746240 0.172020
						CHANNELS 3 Zrotation Yrotation Xrotation
						JOINT Head
						{
							OFFSET 0.104070 1.761360 -0.123970
							CHANNELS 3 Zrotation Yrotation Xrotation
							End Site
							{
								OFFSET 0.000000 0.000000 0.000000
							}
						}
					}
				}
				JOINT LeftShoulder
				{
					OFFSET 0.000000 0.000000 0.000000
					CHANNELS 3 Zrotation Yrotation Xrotation
					JOINT LeftArm
					{
						OFFSET 3.362410 1.200890 -0.311210
						CHANNELS 3 Zrotation Yrotation Xrotation
						JOINT LeftForeArm
						{
							OFFSET 4.983000 -0.000000 -0.000000
							CHANNELS 3 Zrotation Yrotation Xrotation
							JOINT LeftHand
							{
								OFFSET 3.483560 -0.000000 -0.000000
								CHANNELS 3 Zrotation Yrotation Xrotation
								JOINT LeftFingerBase
								{
									OFFSET 0.000000 0.000000 0.000000
									CHANNELS 3 Zrotation Yrotation Xrotation
									JOINT LeftHandIndex1
									{
										OFFSET 0.715260 -0.000000 -0.000000
										CHANNELS 3 Zrotation Yrotation Xrotation
										End Site
										{
											OFFSET 0.000000 0.000000 0.000000
										}
									}
								}
								JOINT LThumb
								{
									OFFSET 0.000000 0.000000 0.000000
									CHANNELS 3 Zrotation Yrotation Xrotation
									End Site
									{
										OFFSET 0.000000 0.000000 0.000000
									}
								}
							}
						}
					}
				}
				JOINT RightShoulder
				{
					OFFSET 0.000000 0.000000 0.000000
					CHANNELS 3 Zrotation Yrotation Xrotation
					JOINT RightArm
					{
						OFFSET -3.136600 1.374050 -0.404650
						CHANNELS 3 Zrotation Yrotation Xrotation
						JOINT RightForeArm
						{
							OFFSET -5.241900 -0.000000 -0.000000
							CHANNELS 3 Zrotation Yrotation Xrotation
							JOINT RightHand
							{
								OFFSET -3.444170 -0.000000 -0.000000
								CHANNELS 3 Zrotation Yrotation Xrotation
								JOINT RightFingerBase
								{
									OFFSET 0.000000 0.000000 0.000000
									CHANNELS 3 Zrotation Yrotation Xrotation
									JOINT RightHandIndex1
									{
										OFFSET -0.622530 -0.000000 -0.000000
										CHANNELS 3 Zrotation Yrotation Xrotation
										End Site
										{
											OFFSET 0.000000 0.000000 0.000000
										}
									}
								}
								JOINT RThumb
								{
									OFFSET 0.000000 0.000000 0.000000
									CHANNELS 3 Zrotation Yrotation Xrotation
									End Site
									{
										OFFSET 0.000000 0.000000 0.000000
									}
								}
							}
						}
					}
				}
			}
		}
	}
}
MOTION
Frames: 7
Frame Time: 0.008333
0.140735 17.819352 -14.672418 -1.504737 0.243513 6.566421 -1.256581 -0.145628 0.581373 -13.931621 -0.002737 -17.631010 0.068864 7.354402 20.220959 -0.243070 2.875707 -0.689410 0.058800 1.564300 4.303000 -0.741995 -0.329853 0.011181 20.697237 1.228306 -14.020525 -0.274058 -6.606430 18.769002 -0.352427 0.712619 -3.236636 -0.791200 -5.677900 15.852600 2.010110 -0.674158 -1.342448 1.530554 -0.968101 -2.204256 0.849740 -0.780843 6.801340 -3.277924 -0.634470 -9.893919 2.402384 -0.006762 29.764156 0.330300 0.413000 11.423200 9.339526 5.676750 0.406871 -99.418183 -4.495705 31.263560 10.105029 -21.225838 -2.098250 -0.008477 -0.715640 -6.968075 22.960211 -4.495608 -1.583000 -7.125000 0.000000 0.000000 -2.700700 25.934200 1.248900 -8.337555 -4.637835 0.049401 93.198465 2.110095 12.184641 -10.487042 22.725013 -2.438346 0.668273 0.950067 30.938970 -20.646554 -24.129182 9.209000 7.125000 0.000000 0.000000 9.814900 -56.578500 -2.804700 
0.143369 17.819149 -14.667048 -1.542724 0.188239 6.607262 -1.268854 -0.140517 0.594512 -13.913592 0.008265 -17.519600 0.025326 7.249099 19.929684 -0.189797 2.613670 -0.352105 0.057000 1.540700 4.237800 -0.739781 -0.329899 0.009053 20.728526 1.265161 -14.025920 -0.270968 -6.603094 18.753209 -0.354296 0.723237 -3.237787 -0.791100 -5.677700 15.852100 2.087021 -0.618646 -1.393793 1.531187 -0.899738 -2.208660 0.831915 -0.743244 6.801261 -3.278772 -0.670556 -9.910797 2.427951 -0.066858 29.735695 0.333100 0.387600 11.416900 9.340339 5.677669 0.397206 -99.450623 -4.333807 32.184492 10.241867 -21.450988 -2.120737 -0.007682 -0.731665 -7.087662 24.673334 -4.504562 -1.707400 -7.125000 0.000000 0.000000 -1.400400 25.902200 0.648200 -8.331813 -4.637675 0.048379 93.121380 2.167515 12.009123 -10.408923 22.603636 -2.405198 0.670287 0.952680 31.121806 -20.597037 -24.263358 9.229700 7.125000 0.000000 0.000000 9.935400 -56.707600 -2.870700 
0.147524 17.819149 -14.661881 -1.590929 0.137040 6.641589 -1.282790 -0.133675 0.610416 -13.900709 0.059961 -17.387513 -0.020117 7.133607 19.610638 -0.153218 2.434943 0.037926 0.060900 1.592500 4.380700 -0.739741 -0.329933 0.004815 20.767030 1.296625 -14.045834 -0.273054 -6.615035 18.778776 -0.359767 0.753393 -3.260890 -0.794000 -5.687800 15.881100 2.163999 -0.577487 -1.446626 1.537541 -0.851338 -2.208323 0.837190 -0.717108 6.816374 -3.314950 -0.687062 -9.890526 2.472047 -0.100801 29.665051 0.352800 0.372000 11.377800 9.345061 5.676845 0.392962 -99.504895 -4.208957 32.787163 10.496662 -21.867642 -2.210764 0.009443 -0.738757 -7.735501 25.312962 -4.093477 -1.556400 -7.125000 0.000000 0.000000 -0.916100 26.350100 0.414300 -8.326393 -4.639436 0.049641 93.036003 2.295789 11.733738 -10.302075 22.435003 -2.362143 0.674806 0.950055 31.382744 -20.579926 -24.222318 9.207900 7.125000 0.000000 0.000000 9.934700 -56.662700 -2.859700 
0.154616 17.817629 -14.654687 -1.588841 0.066884 6.691447 -1.297228 -0.125282 0.629074 -13.969682 0.185023 -17.253316 -0.060675 7.019670 19.291397 -0.184525 2.592849 0.090260 0.067300 1.673300 4.603700 -0.737619 -0.331441 0.002319 20.740745 1.235272 -14.117243 -0.274779 -6.625358 18.800731 -0.379632 0.879220 -3.246838 -0.787500 -5.665000 15.815400 2.180649 -0.535846 -1.527688 1.536646 -0.801364 -2.215624 0.843933 -0.691794 6.825474 -3.293486 -0.707925 -9.902666 2.471578 -0.134386 29.635002 0.341400 0.359500 11.368100 9.350864 5.681393 0.393462 -99.520569 -4.036767 33.399764 10.683868 -22.173510 -2.294123 0.016744 -0.737183 -8.073795 24.885394 -4.061117 -1.513200 -7.125000 0.000000 0.000000 -1.243500 26.393800 0.561200 -8.320169 -4.643016 0.045855 92.954630 2.406524 11.548981 -10.216375 22.298597 -2.326489 0.679634 0.949222 31.573779 -20.606841 -24.251214 9.231500 7.125000 0.000000 0.000000 9.920100 -56.700200 -2.864500 
0.160999 17.816616 -14.647290 -1.614650 -0.003521 6.737168 -1.311570 -0.116415 0.648156 -14.002577 0.300984 -17.116452 -0.103764 6.898883 18.955689 -0.195418 2.650967 0.224532 0.067900 1.680600 4.623700 -0.736749 -0.332579 -0.000859 20.747798 1.210387 -14.171455 -0.277283 -6.638457 18.829866 -0.394915 0.974216 -3.252124 -0.782600 -5.647600 15.765300 2.224061 -0.494215 -1.604594 1.539493 -0.752324 -2.221707 0.851093 -0.666383 6.834884 -3.291076 -0.725761 -9.909209 2.488395 -0.166201 29.599826 0.341900 0.347100 11.354100 9.355948 5.684223 0.391386 -99.544130 -3.870369 34.017406 10.878793 -22.488821 -2.371077 0.024312 -0.739685 -8.452727 25.032216 -3.994957 -1.490300 -7.125000 0.000000 0.000000 -1.132900 26.467100 0.509300 -8.313746 -4.645963 0.043174 92.865436 2.505643 11.375175 -10.134642 22.169078 -2.293215 0.683371 0.948466 31.760039 -20.601248 -24.265919 9.234200 7.125000 0.000000 0.000000 9.934000 -56.715600 -2.872300 
0.167990 17.815400 -14.639387 -1.649890 -0.077039 6.783556 -1.326052 -0.106555 0.668679 -14.033483 0.449945 -16.981095 -0.146945 6.772700 18.604969 -0.216632 2.760052 0.305238 0.065600 1.652200 4.545400 -0.736426 -0.334020 -0.004187 20.763820 1.179791 -14.228525 -0.280068 -6.652351 18.860801 -0.411068 1.075339 -3.258932 -0.776600 -5.626600 15.704800 2.268103 -0.455723 -1.686163 1.544281 -0.707904 -2.228650 0.863990 -0.643866 6.844692 -3.285720 -0.739410 -9.920749 2.503953 -0.191388 29.570736 0.341800 0.338100 11.344200 9.361758 5.687400 0.390186 -99.561713 -3.701051 34.598830 11.069579 -22.796134 -2.450537 0.031202 -0.740740 -8.821952 25.000423 -3.967222 -1.474500 -7.125000 0.000000 0.000000 -1.158400 26.500200 0.519900 -8.306679 -4.649086 0.039599 92.771258 2.608149 11.229705 -10.060054 22.049955 -2.262905 0.687071 0.947439 31.924736 -20.603118 -24.265643 9.235600 7.125000 0.000000 0.000000 9.932100 -56.717300 -2.872100 
0.175590 17.813982 -14.630978 -1.699422 -0.149309 6.828098 -1.340020 -0.096193 0.689628 -14.054360 0.625383 -16.857084 -0.188412 6.646861 18.255805 -0.242385 2.890794 0.346724 0.060100 1.581900 4.351600 -0.736386 -0.335997 -0.007177 20.795464 1.148868 -14.273507 -0.280695 -6.660034 18.874572 -0.425376 1.165546 -3.260494 -0.769800 -5.602500 15.635400 2.316798 -0.420461 -1.766865 1.551568 -0.668436 -2.236505 0.882286 -0.623953 6.851918 -3.277908 -0.750474 -9.936971 2.519708 -0.213001 29.548934 0.341700 0.331100 11.339100 9.368043 5.690504 0.389259 -99.574983 -3.531821 35.156655 11.246343 -23.079515 -2.525748 0.036675 -0.741292 -9.144127 24.924507 -3.981380 -1.475700 -7.125000 0.000000 0.000000 -1.217200 26.487200 0.546700 -8.298885 -4.651793 0.035187 92.673562 2.711053 11.117191 -9.994809 21.944766 -2.236496 0.690409 0.946571 32.061633 -20.605618 -24.263585 9.236800 7.125000 0.000000 0.000000 9.928600 -56.717100 -2.871000 
